<svg xmlns="http://www.w3.org/2000/svg" xmlns:xlink="http://www.w3.org/1999/xlink" width="150" zoomAndPan="magnify" viewBox="0 0 112.5 56.249996" height="75" preserveAspectRatio="xMidYMid meet" version="1.0"><defs><g/><clipPath id="6fa411e361"><path d="M 51.644531 28 L 106.65625 28 L 106.65625 38.285156 L 51.644531 38.285156 Z M 51.644531 28 " clip-rule="nonzero"/></clipPath></defs><g clip-path="url(#6fa411e361)"><path fill="#f8b6cd" d="M 52.078125 34.28125 C 53.894531 40.554688 64.773438 36.101562 66.242188 35.039062 C 60.367188 29.472656 65.503906 25.652344 67.5 29.671875 C 71.148438 26.269531 74.207031 32.585938 67.058594 35.210938 C 70.367188 38.132812 80.652344 36.019531 90.347656 31.582031 C 98.679688 27.765625 106.492188 28.816406 106.65625 33.105469 C 106.296875 33.160156 106.105469 33.0625 106.074219 32.933594 C 104.5 27.175781 93.722656 30.765625 89.957031 32.414062 C 81.722656 36.019531 71.699219 38.746094 66.613281 35.585938 C 64.089844 36.652344 54.277344 41.160156 51.644531 34.910156 Z M 66.6875 34.886719 C 72.628906 32.625 71.402344 26.453125 67.410156 30.546875 C 65.28125 26.035156 61.707031 30.191406 66.6875 34.886719 Z M 66.6875 34.886719 " fill-opacity="1" fill-rule="evenodd"/></g><g fill="#f8b6cd" fill-opacity="1"><g transform="translate(8.721511, 46.781348)"><g><path d="M 21.539062 -12.421875 C 21.359375 -12.480469 21.058594 -12.421875 21 -12.179688 C 20.941406 -12.058594 17.941406 -4.378906 14.699219 -1.859375 L 14.640625 -1.859375 C 14.160156 -1.441406 13.859375 -1.558594 13.742188 -1.621094 C 12.660156 -2.21875 11.820312 -5.761719 12.242188 -11.398438 C 14.941406 -12.121094 17.039062 -13.980469 18.179688 -16.742188 C 19.261719 -19.378906 19.140625 -22.261719 17.878906 -23.28125 C 17.640625 -23.519531 17.160156 -23.699219 16.441406 -23.460938 C 14.28125 -22.742188 10.800781 -18.601562 8.28125 -14.941406 C 6.058594 -11.699219 4.199219 -8.398438 2.878906 -5.460938 C 3.238281 -7.558594 3.660156 -9.839844 4.140625 -12.179688 C 8.101562 -17.039062 12.058594 -22.980469 15 -28.621094 C 17.699219 -33.902344 19.261719 -38.28125 19.558594 -41.28125 L 19.558594 -41.402344 C 19.558594 -41.941406 19.558594 -42.480469 19.5 -42.960938 C 19.378906 -44.042969 18.960938 -44.820312 18.300781 -45.300781 C 17.699219 -45.78125 16.621094 -46.140625 15.058594 -45.421875 C 11.941406 -44.042969 8.460938 -39.0625 5.519531 -31.742188 C 1.859375 -22.5625 -0.898438 -9.898438 -2.519531 4.921875 C -2.640625 5.941406 -1.921875 6.898438 -0.898438 7.082031 L -0.121094 7.199219 C -0.0585938 7.261719 0.0585938 7.261719 0.121094 7.261719 C 0.421875 7.261719 0.660156 7.140625 0.898438 6.960938 C 1.199219 6.78125 1.378906 6.421875 1.378906 6.058594 C 1.558594 4.558594 1.800781 2.21875 2.21875 -0.71875 C 3.121094 -4.5 5.640625 -9.601562 9 -14.398438 C 10.742188 -16.921875 12.480469 -19.082031 13.980469 -20.519531 C 14.21875 -20.820312 14.519531 -20.941406 14.761719 -20.941406 C 14.941406 -20.941406 15.058594 -20.820312 15.121094 -20.699219 C 15.300781 -20.519531 15.300781 -19.5 14.640625 -17.878906 C 13.679688 -15.480469 11.582031 -12.480469 8.820312 -12 L 8.761719 -12 L 8.699219 -11.941406 L 8.640625 -11.941406 L 8.640625 -11.878906 L 8.582031 -11.878906 L 8.519531 -11.820312 L 8.519531 -11.761719 L 8.460938 -11.761719 L 8.460938 -11.582031 C 8.101562 -7.738281 8.582031 -2.578125 10.921875 -0.78125 C 11.460938 -0.359375 12.058594 -0.179688 12.660156 -0.179688 C 13.082031 -0.179688 13.5 -0.238281 13.859375 -0.421875 C 14.28125 -0.539062 14.699219 -0.78125 15.058594 -1.019531 C 15.121094 -1.078125 15.179688 -1.078125 15.179688 -1.140625 C 15.242188 -1.140625 15.242188 -1.140625 15.242188 -1.199219 C 18.71875 -3.898438 21.660156 -11.460938 21.839844 -11.820312 C 21.902344 -12.058594 21.78125 -12.359375 21.539062 -12.421875 Z M 5.699219 -18.78125 C 9.121094 -31.261719 13.859375 -41.820312 16.742188 -43.441406 C 16.980469 -43.5625 17.21875 -43.621094 17.402344 -43.621094 C 17.460938 -43.621094 17.582031 -43.5625 17.640625 -43.5625 C 18.71875 -43.140625 18.660156 -41.460938 18.660156 -41.402344 C 18.179688 -35.519531 12.058594 -23.699219 4.558594 -14.160156 Z M 5.699219 -18.78125 "/></g></g></g><g fill="#f8b6cd" fill-opacity="1"><g transform="translate(29.660229, 46.781348)"><g><path d="M 22.5 -12.242188 C 22.378906 -12.421875 22.082031 -12.539062 21.902344 -12.359375 C 21.839844 -12.359375 17.160156 -9.421875 12.78125 -10.441406 C 13.378906 -12.242188 13.621094 -14.101562 13.558594 -15.78125 C 13.378906 -18.839844 12.121094 -21 9.960938 -21.78125 C 8.640625 -22.261719 7.320312 -22.199219 6 -21.539062 C 3.480469 -20.21875 1.320312 -16.800781 0 -12.121094 C -1.140625 -8.039062 0.238281 -5.101562 1.859375 -3.71875 C 2.820312 -2.941406 3.898438 -2.578125 5.039062 -2.578125 C 5.820312 -2.578125 6.539062 -2.761719 7.261719 -3.121094 C 9.660156 -4.261719 11.460938 -6.78125 12.480469 -9.539062 C 13.199219 -9.421875 13.921875 -9.300781 14.699219 -9.300781 C 15.480469 -9.300781 16.378906 -9.421875 17.28125 -9.601562 C 20.101562 -10.199219 22.261719 -11.582031 22.378906 -11.640625 C 22.5625 -11.761719 22.621094 -12.058594 22.5 -12.242188 Z M 8.160156 -4.738281 C 7.199219 -4.019531 6.179688 -3.960938 5.28125 -4.558594 C 3.960938 -5.460938 2.878906 -7.980469 4.019531 -12.242188 C 4.5 -14.039062 5.21875 -15.601562 6.121094 -16.800781 C 6.179688 -15.660156 6.601562 -14.101562 8.101562 -12.359375 C 9.058594 -11.21875 10.140625 -10.378906 11.460938 -9.898438 C 11.519531 -9.839844 11.582031 -9.839844 11.640625 -9.839844 C 10.859375 -7.800781 9.660156 -5.941406 8.160156 -4.738281 Z M 11.941406 -10.679688 C 11.878906 -10.679688 11.820312 -10.679688 11.761719 -10.742188 C 10.859375 -11.101562 10.140625 -11.878906 9.71875 -12.960938 C 8.761719 -15.421875 9.359375 -18.71875 9.71875 -19.742188 C 9.898438 -19.800781 10.019531 -19.800781 10.140625 -19.800781 C 10.980469 -19.921875 11.640625 -19.5 12 -18.660156 C 12.480469 -17.640625 12.660156 -16.5 12.660156 -15.71875 C 12.78125 -14.160156 12.480469 -12.359375 11.941406 -10.679688 Z M 11.941406 -10.679688 "/></g></g></g></svg>