<svg xmlns="http://www.w3.org/2000/svg" xmlns:xlink="http://www.w3.org/1999/xlink" width="100" zoomAndPan="magnify" viewBox="0 0 75 74.999997" height="100" preserveAspectRatio="xMidYMid meet" version="1.0"><defs><g/><clipPath id="cf36823a80"><path d="M 0 33.488281 L 75 33.488281 L 75 41.738281 L 0 41.738281 Z M 0 33.488281 " clip-rule="nonzero"/></clipPath></defs><g fill="#f9a6d1" fill-opacity="1"><g transform="translate(0.66619, 49.205107)"><g><path d="M 2.84375 0 L 2.84375 -24.828125 L 5.25 -24.828125 L 5.25 -12.984375 L 13.796875 -24.828125 L 16.5625 -24.828125 L 7.875 -13.15625 L 18.265625 0 L 15.5 0 L 5.25 -12.984375 L 5.25 0 Z M 2.84375 0 "/></g></g></g><g fill="#f9a6d1" fill-opacity="1"><g transform="translate(20.347016, 49.205107)"><g><path d="M 2.546875 0 L 2.546875 -24.828125 L 4.96875 -24.828125 L 14.078125 -6.671875 L 23.203125 -24.828125 L 25.609375 -24.828125 L 25.609375 0 L 23.375 0 L 23.375 -20.71875 L 15.28125 -4.640625 L 12.875 -4.640625 L 4.78125 -20.71875 L 4.78125 0 Z M 2.546875 0 "/></g></g></g><g fill="#f9a6d1" fill-opacity="1"><g transform="translate(48.786692, 49.205107)"><g><path d="M 12.765625 -24.96875 C 19.742188 -24.96875 23.234375 -20.757812 23.234375 -12.34375 C 23.234375 -8.488281 22.238281 -5.441406 20.25 -3.203125 C 18.257812 -0.972656 15.765625 0.140625 12.765625 0.140625 C 9.578125 0.140625 7.109375 -0.734375 5.359375 -2.484375 C 3.328125 -4.566406 2.3125 -7.695312 2.3125 -11.875 C 2.3125 -16.0625 3.304688 -19.289062 5.296875 -21.5625 C 7.296875 -23.832031 9.785156 -24.96875 12.765625 -24.96875 Z M 7.09375 -4.1875 C 8.394531 -2.71875 10.285156 -1.984375 12.765625 -1.984375 C 15.109375 -1.984375 17.035156 -2.910156 18.546875 -4.765625 C 20.054688 -6.628906 20.8125 -9.296875 20.8125 -12.765625 C 20.8125 -16.242188 20.019531 -18.859375 18.4375 -20.609375 C 17.113281 -22.097656 15.222656 -22.84375 12.765625 -22.84375 C 10.453125 -22.84375 8.53125 -21.90625 7 -20.03125 C 5.476562 -18.164062 4.71875 -15.488281 4.71875 -12 C 4.71875 -8.519531 5.507812 -5.914062 7.09375 -4.1875 Z M 7.09375 -4.1875 "/></g></g></g><g clip-path="url(#cf36823a80)"><path fill="#000000" d="M 0.0507812 33.488281 L 74.949219 33.488281 L 74.949219 41.738281 L 0.0507812 41.738281 L 0.0507812 33.488281 " fill-opacity="1" fill-rule="nonzero"/></g></svg>